<?xml version="1.0" encoding="utf-8"?>
<svg xmlns="http://www.w3.org/2000/svg"
	xmlns:xlink="http://www.w3.org/1999/xlink"
	width="20px" height="20px" viewBox="0 0 20 20">
<filter filterUnits="objectBoundingBox" x="0.00" y="0.00" width="95.24" height="100.00" id="filter0">
<feFlood flood-color="rgb(255,255,255)" result="coFloodOut1"/>
<feComposite in="coFloodOut1" in2="SourceAlpha" operator="in" result="coOverlay1"/>
<feBlend in="coOverlay1" in2="SourceGraphic" mode="normal" result="colorOverlay1"/>
</filter>
<path fillRule="evenodd" d="M 19.84 18.98C 19.84 18.98 14.98 14.12 14.98 14.12 16.29 12.62 17.08 10.66 17.08 8.53 17.08 3.82 13.25-0 8.55-0 3.85-0 0.02 3.83 0.02 8.53 0.02 13.23 3.85 17.06 8.55 17.06 10.69 17.06 12.64 16.27 14.14 14.96 14.14 14.96 19 19.82 19 19.82 19.12 19.94 19.27 20 19.42 20 19.57 20 19.73 19.94 19.84 19.82 20.07 19.59 20.07 19.21 19.84 18.98ZM 1.22 8.53C 1.22 4.48 4.51 1.2 8.55 1.2 12.59 1.2 15.88 4.49 15.88 8.53 15.88 12.57 12.59 15.86 8.55 15.86 4.51 15.86 1.22 12.57 1.22 8.53Z" fill="rgb(0,0,0)" filter="url(#filter0)"/></svg>